<svg xmlns="http://www.w3.org/2000/svg" viewBox="0 0 186.17 149.09"><defs><style>.cls-1{fill:#fff;}</style></defs><title>Asset 2</title><g id="Layer_2" data-name="Layer 2"><g id="Layer_2-2" data-name="Layer 2"><rect class="cls-1" x="1.5" y="1.5" width="120.02" height="47" rx="1.11"/><path d="M120.4,50H2.61A2.61,2.61,0,0,1,0,47.39V2.61A2.61,2.61,0,0,1,2.61,0H120.4A2.61,2.61,0,0,1,123,2.61V47.39A2.61,2.61,0,0,1,120.4,50ZM4.11,47H118.9A1.12,1.12,0,0,0,120,45.89V4.11A1.12,1.12,0,0,0,118.9,3H4.11A1.11,1.11,0,0,0,3,4.11V45.89A1.11,1.11,0,0,0,4.11,47Z"/><path d="M.94,49.39,17.47,64.26a5,5,0,0,0,3.29,1.19H136.53c1.26,0,2-1.19,1.19-2l-15.18-16a1.7,1.7,0,0,0-1.21-.48H2.48L.58,44.3a5.29,5.29,0,0,0-.23,4A4,4,0,0,0,.94,49.39Z"/><line x1="122.03" y1="12.56" x2="136.08" y2="16.38"/><rect x="127.56" y="7.19" width="3" height="14.56" transform="translate(81.27 135.22) rotate(-74.8)"/><line x1="121.03" y1="24.54" x2="136.09" y2="30.39"/><rect x="127.06" y="19.39" width="3" height="16.16" transform="translate(56.42 137.37) rotate(-68.78)"/><line x1="121.65" y1="37.7" x2="137" y2="45.58"/><rect x="127.82" y="33.01" width="3" height="17.26" transform="translate(33.21 137.66) rotate(-62.82)"/><path d="M136.74.93,123.36,0h-1.88a1.41,1.41,0,0,0-1.42,1.4V44.73h3l-.16-.2V2.81l12.32.83V51.32h0V64.54l.3.38a1.43,1.43,0,0,0,1.12.53,1.24,1.24,0,0,0,.46-.08,1.4,1.4,0,0,0,1-1.32V2.33A1.41,1.41,0,0,0,136.74.93Z"/><path d="M30.12,133l16.53,14.87a5,5,0,0,0,3.3,1.18H165.71c1.26,0,2-1.19,1.2-2l-15.19-16a1.67,1.67,0,0,0-1.21-.49H31.67l-1.91-2.7a5.29,5.29,0,0,0-.23,4A4.59,4.59,0,0,0,30.12,133Z"/><rect class="cls-1" x="30.95" y="83.64" width="138.24" height="47" rx="1.2"/><path d="M167.91,132.14H32.23a2.83,2.83,0,0,1-3-2.62V84.75a2.83,2.83,0,0,1,3-2.61H167.91a2.83,2.83,0,0,1,3,2.61v44.77A2.83,2.83,0,0,1,167.91,132.14ZM34,129.14H166.18a1.21,1.21,0,0,0,1.28-1.12V86.25a1.2,1.2,0,0,0-1.28-1.11H34a1.2,1.2,0,0,0-1.28,1.11V128A1.21,1.21,0,0,0,34,129.14Z"/><path d="M48.58,132.71l17,15.19a5,5,0,0,0,3.3,1.19H184.66c1.26,0,2-1.19,1.19-2l-15.19-16a1.68,1.68,0,0,0-1.21-.48H49.69C48.38,130.64,47.7,131.92,48.58,132.71Z"/><line x1="169.14" y1="107.24" x2="184.2" y2="113.22"/><polygon points="183.66 114.65 168.6 108.67 169.69 105.81 184.75 111.79 183.66 114.65"/><line x1="169.76" y1="120.69" x2="185.11" y2="128.76"/><polygon points="184.43 130.12 169.08 122.06 170.45 119.33 185.8 127.39 184.43 130.12"/><line x1="170.15" y1="94.98" x2="184.2" y2="98.89"/><polygon points="183.81 100.37 169.75 96.46 170.54 93.5 184.59 97.41 183.81 100.37"/><path d="M184.85,83.09l-13.37-1h-1.89a1.43,1.43,0,0,0-1.42,1.43v44.32h3l-.15-.21V85l12.31.85v48.76h0v13.52l.3.39a1.43,1.43,0,0,0,1.12.54,1.49,1.49,0,0,0,.47-.07,1.44,1.44,0,0,0,.95-1.36V84.52A1.42,1.42,0,0,0,184.85,83.09Z"/><path d="M35.52,14.41h3.39v8.71H39l6.81-8.71H49.6l-5.9,7.48,6.89,11.67H46.84l-5.17-9L38.91,28v5.58H35.52Z"/><path d="M58.85,14.41H70.38v2.86H62.25v4.91h6.88V25H62.25V30.7h8.42v2.86H58.85Z"/><path d="M83.65,26.44l-5.76-12h3.63l2.09,4.9c.56,1.42,1.1,2.75,1.7,4.21h.12c.6-1.46,1.2-2.79,1.76-4.21l2.08-4.9h3.54l-5.76,12v7.12h-3.4Z"/><path d="M62.59,96.55H66V115.7h-3.4Z"/><path d="M76.7,96.55h3.49l6,10.76,2,4.09h.12c-.16-2-.43-4.4-.43-6.53V96.55H91V115.7H87.55l-6-10.78-2-4.07H79.5c.17,2,.44,4.33.44,6.46v8.39H76.7Z"/><path d="M101.76,96.55h11.58v2.86h-8.18v5.43h7v2.86h-7v8h-3.4Z"/><path d="M121.25,106.05c0-6.2,3.45-9.85,8.44-9.85s8.45,3.67,8.45,9.85-3.46,10-8.45,10S121.25,112.24,121.25,106.05Zm13.4,0c0-4.3-2-6.9-5-6.9s-5,2.6-5,6.9,1.94,7,5,7S134.65,110.35,134.65,106.05Z"/></g></g></svg>